<svg width="200" height="200" viewBox="0 0 200 200" fill="none" xmlns="http://www.w3.org/2000/svg">
  <defs>
    <linearGradient id="grad1" x1="0%" y1="0%" x2="100%" y2="100%">
      <stop offset="0%" style="stop-color:#0A66C2;stop-opacity:1" />
      <stop offset="100%" style="stop-color:#4F9CF9;stop-opacity:1" />
    </linearGradient>
  </defs>
  
  <!-- Background Circle -->
  <circle cx="100" cy="100" r="90" fill="url(#grad1)" />
  
  <!-- Robot Head -->
  <rect x="70" y="60" width="60" height="50" rx="8" fill="white" />
  
  <!-- Eyes -->
  <circle cx="85" cy="75" r="6" fill="#0A66C2" />
  <circle cx="115" cy="75" r="6" fill="#0A66C2" />
  
  <!-- Mouth -->
  <rect x="90" y="90" width="20" height="4" rx="2" fill="#0A66C2" />
  
  <!-- Antenna -->
  <line x1="100" y1="60" x2="100" y2="45" stroke="white" stroke-width="3" stroke-linecap="round" />
  <circle cx="100" cy="45" r="4" fill="white" />
  
  <!-- Body -->
  <rect x="75" y="110" width="50" height="60" rx="8" fill="white" />
  
  <!-- Arms -->
  <rect x="55" y="120" width="20" height="8" rx="4" fill="white" />
  <rect x="125" y="120" width="20" height="8" rx="4" fill="white" />
  
  <!-- Dental Symbol (Tooth) -->
  <path d="M95 130 Q95 125 100 125 Q105 125 105 130 L105 145 Q105 150 100 150 Q95 150 95 145 Z" fill="#0A66C2" />
</svg>