<svg xmlns="http://www.w3.org/2000/svg" viewBox="0 0 200 200" width="200" height="200">
  <defs>
    <linearGradient id="grad1" x1="0%" y1="0%" x2="100%" y2="100%">
      <stop offset="0%" style="stop-color:#0ea5e9;stop-opacity:1" />
      <stop offset="100%" style="stop-color:#14b8a6;stop-opacity:1" />
    </linearGradient>
  </defs>
  
  <!-- Background circle -->
  <circle cx="100" cy="100" r="95" fill="url(#grad1)" stroke="#ffffff" stroke-width="4"/>
  
  <!-- Dental tooth icon -->
  <path d="M100 30 
           C120 30, 140 45, 140 70
           C140 85, 135 100, 130 115
           C125 130, 120 145, 115 155
           C110 165, 105 170, 100 170
           C95 170, 90 165, 85 155
           C80 145, 75 130, 70 115
           C65 100, 60 85, 60 70
           C60 45, 80 30, 100 30 Z" 
        fill="#ffffff" 
        stroke="#0ea5e9" 
        stroke-width="2"/>
  
  <!-- AI circuit pattern -->
  <circle cx="100" cy="80" r="3" fill="#0ea5e9"/>
  <circle cx="85" cy="95" r="2" fill="#14b8a6"/>
  <circle cx="115" cy="95" r="2" fill="#14b8a6"/>
  <circle cx="100" cy="110" r="2" fill="#0ea5e9"/>
  
  <!-- Connect the dots -->
  <line x1="100" y1="80" x2="85" y2="95" stroke="#0ea5e9" stroke-width="1.5"/>
  <line x1="100" y1="80" x2="115" y2="95" stroke="#0ea5e9" stroke-width="1.5"/>
  <line x1="85" y1="95" x2="100" y2="110" stroke="#14b8a6" stroke-width="1.5"/>
  <line x1="115" y1="95" x2="100" y2="110" stroke="#14b8a6" stroke-width="1.5"/>
</svg>